#Comment line ignore any data following # character 
#Hierarchical Translation and Rotation (.htr) file 
[Header]	
#Header keywords are followed by a single value 
FileType HTR		#Single word string
DataType HTRS		#Translation followed by rotation and scale data
FileVersion 1		#integer
NumSegments 84		#integer
NumFrames 2		#integer
DataFrameRate 30		#integer, data frame rate in this file
EulerRotationOrder ZYX
CalibrationUnits mm
RotationUnits Degrees
GlobalAxisofGravity Y
BoneLengthAxis Y
ScaleFactor 1.00
[SegmentNames&Hierarchy]
#CHILD	PARENT
MASTER GLOBAL
root MASTER
chest root
L_mid_tent01 root
R_mid_tent01 root
spine01 root
Bip01_Neck chest
L_humerus chest
R_humerus chest
weapon_bone chest
Bip01_Head Bip01_Neck
eye_left_bone Bip01_Head
eye_right_bone Bip01_Head
L_forearm L_humerus
L_front_hand L_forearm
L_weapon_bone L_forearm
L_front_hand01_01 L_front_hand
L_front_hand02_01 L_front_hand
L_front_hand03_01 L_front_hand
L_front_hand01_02 L_front_hand01_01
L_front_hand02_02 L_front_hand02_01
L_front_hand03_02 L_front_hand03_01
R_forearm R_humerus
R_front_hand R_forearm
R_weapon_bone R_forearm
R_front_hand01_01 R_front_hand
R_front_hand02_01 R_front_hand
R_front_hand03_01 R_front_hand
R_front_hand01_02 R_front_hand01_01
R_front_hand02_02 R_front_hand02_01
R_front_hand03_02 R_front_hand03_01
null_rope01_connect L_mid_tent01
Rope1_Seg01 null_rope01_connect
Rope1_Seg02 Rope1_Seg01
Rope1_Seg03 Rope1_Seg02
Rope1_Seg04 Rope1_Seg03
Rope1_Seg05 Rope1_Seg04
Rope1_Seg06 Rope1_Seg05
Rope1_Seg07 Rope1_Seg06
Rope1_Seg09 Rope1_Seg07
L_mid_hand01 Rope1_Seg09
L_mid_hand02 Rope1_Seg09
L_mid_hand03 Rope1_Seg09
null_rope02_connect R_mid_tent01
Rope2_Seg01 null_rope02_connect
Rope2_Seg02 Rope2_Seg01
Rope2_Seg03 Rope2_Seg02
Rope2_Seg04 Rope2_Seg03
Rope2_Seg05 Rope2_Seg04
Rope2_Seg06 Rope2_Seg05
Rope2_Seg07 Rope2_Seg06
Rope2_Seg09 Rope2_Seg07
R_mid_hand01 Rope2_Seg09
R_mid_hand02 Rope2_Seg09
R_mid_hand03 Rope2_Seg09
spine02 spine01
spine03 spine02
pelvis spine03
null_rope03_connect pelvis
null_rope04_connect pelvis
Rope3_Seg01 null_rope03_connect
Rope3_Seg02 Rope3_Seg01
Rope3_Seg03 Rope3_Seg02
Rope3_Seg04 Rope3_Seg03
Rope3_Seg05 Rope3_Seg04
Rope3_Seg06 Rope3_Seg05
Rope3_Seg07 Rope3_Seg06
Rope3_Seg08 Rope3_Seg07
Rope3_Seg09 Rope3_Seg08
R_rear_hand01 Rope3_Seg09
R_rear_hand02 Rope3_Seg09
R_rear_hand03 Rope3_Seg09
Rope4_Seg01 null_rope04_connect
Rope4_Seg02 Rope4_Seg01
Rope4_Seg03 Rope4_Seg02
Rope4_Seg04 Rope4_Seg03
Rope4_Seg05 Rope4_Seg04
Rope4_Seg06 Rope4_Seg05
Rope4_Seg07 Rope4_Seg06
Rope4_Seg08 Rope4_Seg07
Rope4_Seg09 Rope4_Seg08
L_rear_hand01 Rope4_Seg09
L_rear_hand02 Rope4_Seg09
L_rear_hand03 Rope4_Seg09
[BasePosition]
#SegmentName Tx, Ty, Tz, Rx, Ry, Rz, BoneLength
MASTER 0.000000 0.000000 0.000000 -90.000000 0.000000 0.000000 10.000000 
root 0.000000 0.000000 0.000000 0.000000 0.000000 0.000000 10.000000 
chest 0.000000 0.000000 0.000000 0.000000 0.000000 0.000000 10.000000 
L_mid_tent01 0.000000 0.000000 0.000000 0.000000 0.000000 0.000000 10.000000 
R_mid_tent01 0.000000 0.000000 0.000000 0.000000 0.000000 0.000000 10.000000 
spine01 0.000000 0.000000 0.000000 0.000000 0.000000 0.000000 10.000000 
Bip01_Neck 0.000000 0.000000 0.000000 0.000000 0.000000 0.000000 10.000000 
L_humerus 0.000000 0.000000 0.000000 0.000000 0.000000 0.000000 10.000000 
R_humerus 0.000000 0.000000 0.000000 0.000000 0.000000 0.000000 10.000000 
weapon_bone 0.000000 0.000000 0.000000 0.000000 0.000000 0.000000 10.000000 
Bip01_Head 0.000000 0.000000 0.000000 0.000000 0.000000 0.000000 10.000000 
eye_left_bone 0.000000 0.000000 0.000000 0.000000 0.000000 0.000000 10.000000 
eye_right_bone 0.000000 0.000000 0.000000 0.000000 0.000000 0.000000 10.000000 
L_forearm 0.000000 0.000000 0.000000 0.000000 0.000000 0.000000 10.000000 
L_front_hand 0.000000 0.000000 0.000000 0.000000 0.000000 0.000000 10.000000 
L_weapon_bone 0.000000 0.000000 0.000000 0.000000 0.000000 0.000000 10.000000 
L_front_hand01_01 0.000000 0.000000 0.000000 0.000000 0.000000 0.000000 10.000000 
L_front_hand02_01 0.000000 0.000000 0.000000 0.000000 0.000000 0.000000 10.000000 
L_front_hand03_01 0.000000 0.000000 0.000000 0.000000 0.000000 0.000000 10.000000 
L_front_hand01_02 0.000000 0.000000 0.000000 0.000000 0.000000 0.000000 10.000000 
L_front_hand02_02 0.000000 0.000000 0.000000 0.000000 0.000000 0.000000 10.000000 
L_front_hand03_02 0.000000 0.000000 0.000000 0.000000 0.000000 0.000000 10.000000 
R_forearm 0.000000 0.000000 0.000000 0.000000 0.000000 0.000000 10.000000 
R_front_hand 0.000000 0.000000 0.000000 0.000000 0.000000 0.000000 10.000000 
R_weapon_bone 0.000000 0.000000 0.000000 0.000000 0.000000 0.000000 10.000000 
R_front_hand01_01 0.000000 0.000000 0.000000 0.000000 0.000000 0.000000 10.000000 
R_front_hand02_01 0.000000 0.000000 0.000000 0.000000 0.000000 0.000000 10.000000 
R_front_hand03_01 0.000000 0.000000 0.000000 0.000000 0.000000 0.000000 10.000000 
R_front_hand01_02 0.000000 0.000000 0.000000 0.000000 0.000000 0.000000 10.000000 
R_front_hand02_02 0.000000 0.000000 0.000000 0.000000 0.000000 0.000000 10.000000 
R_front_hand03_02 0.000000 0.000000 0.000000 0.000000 0.000000 0.000000 10.000000 
null_rope01_connect 0.000000 0.000000 0.000000 0.000000 0.000000 0.000000 10.000000 
Rope1_Seg01 0.000000 0.000000 0.000000 0.000000 0.000000 0.000000 10.000000 
Rope1_Seg02 0.000000 0.000000 0.000000 0.000000 0.000000 0.000000 10.000000 
Rope1_Seg03 0.000000 0.000000 0.000000 0.000000 0.000000 0.000000 10.000000 
Rope1_Seg04 0.000000 0.000000 0.000000 0.000000 0.000000 0.000000 10.000000 
Rope1_Seg05 0.000000 0.000000 0.000000 0.000000 0.000000 0.000000 10.000000 
Rope1_Seg06 0.000000 0.000000 0.000000 0.000000 0.000000 0.000000 10.000000 
Rope1_Seg07 0.000000 0.000000 0.000000 0.000000 0.000000 0.000000 10.000000 
Rope1_Seg09 0.000000 0.000000 0.000000 0.000000 0.000000 0.000000 10.000000 
L_mid_hand01 0.000000 0.000000 0.000000 0.000000 0.000000 0.000000 10.000000 
L_mid_hand02 0.000000 0.000000 0.000000 0.000000 0.000000 0.000000 10.000000 
L_mid_hand03 0.000000 0.000000 0.000000 0.000000 0.000000 0.000000 10.000000 
null_rope02_connect 0.000000 0.000000 0.000000 0.000000 0.000000 0.000000 10.000000 
Rope2_Seg01 0.000000 0.000000 0.000000 0.000000 0.000000 0.000000 10.000000 
Rope2_Seg02 0.000000 0.000000 0.000000 0.000000 0.000000 0.000000 10.000000 
Rope2_Seg03 0.000000 0.000000 0.000000 0.000000 0.000000 0.000000 10.000000 
Rope2_Seg04 0.000000 0.000000 0.000000 0.000000 0.000000 0.000000 10.000000 
Rope2_Seg05 0.000000 0.000000 0.000000 0.000000 0.000000 0.000000 10.000000 
Rope2_Seg06 0.000000 0.000000 0.000000 0.000000 0.000000 0.000000 10.000000 
Rope2_Seg07 0.000000 0.000000 0.000000 0.000000 0.000000 0.000000 10.000000 
Rope2_Seg09 0.000000 0.000000 0.000000 0.000000 0.000000 0.000000 10.000000 
R_mid_hand01 0.000000 0.000000 0.000000 0.000000 0.000000 0.000000 10.000000 
R_mid_hand02 0.000000 0.000000 0.000000 0.000000 0.000000 0.000000 10.000000 
R_mid_hand03 0.000000 0.000000 0.000000 0.000000 0.000000 0.000000 10.000000 
spine02 0.000000 0.000000 0.000000 0.000000 0.000000 0.000000 10.000000 
spine03 0.000000 0.000000 0.000000 0.000000 0.000000 0.000000 10.000000 
pelvis 0.000000 0.000000 0.000000 0.000000 0.000000 0.000000 10.000000 
null_rope03_connect 0.000000 0.000000 0.000000 0.000000 0.000000 0.000000 10.000000 
null_rope04_connect 0.000000 0.000000 0.000000 0.000000 0.000000 0.000000 10.000000 
Rope3_Seg01 0.000000 0.000000 0.000000 0.000000 0.000000 0.000000 10.000000 
Rope3_Seg02 0.000000 0.000000 0.000000 0.000000 0.000000 0.000000 10.000000 
Rope3_Seg03 0.000000 0.000000 0.000000 0.000000 0.000000 0.000000 10.000000 
Rope3_Seg04 0.000000 0.000000 0.000000 0.000000 0.000000 0.000000 10.000000 
Rope3_Seg05 0.000000 0.000000 0.000000 0.000000 0.000000 0.000000 10.000000 
Rope3_Seg06 0.000000 0.000000 0.000000 0.000000 0.000000 0.000000 10.000000 
Rope3_Seg07 0.000000 0.000000 0.000000 0.000000 0.000000 0.000000 10.000000 
Rope3_Seg08 0.000000 0.000000 0.000000 0.000000 0.000000 0.000000 10.000000 
Rope3_Seg09 0.000000 0.000000 0.000000 0.000000 0.000000 0.000000 10.000000 
R_rear_hand01 0.000000 0.000000 0.000000 0.000000 0.000000 0.000000 10.000000 
R_rear_hand02 0.000000 0.000000 0.000000 0.000000 0.000000 0.000000 10.000000 
R_rear_hand03 0.000000 0.000000 0.000000 0.000000 0.000000 0.000000 10.000000 
Rope4_Seg01 0.000000 0.000000 0.000000 0.000000 0.000000 0.000000 10.000000 
Rope4_Seg02 0.000000 0.000000 0.000000 0.000000 0.000000 0.000000 10.000000 
Rope4_Seg03 0.000000 0.000000 0.000000 0.000000 0.000000 0.000000 10.000000 
Rope4_Seg04 0.000000 0.000000 0.000000 0.000000 0.000000 0.000000 10.000000 
Rope4_Seg05 0.000000 0.000000 0.000000 0.000000 0.000000 0.000000 10.000000 
Rope4_Seg06 0.000000 0.000000 0.000000 0.000000 0.000000 0.000000 10.000000 
Rope4_Seg07 0.000000 0.000000 0.000000 0.000000 0.000000 0.000000 10.000000 
Rope4_Seg08 0.000000 0.000000 0.000000 0.000000 0.000000 0.000000 10.000000 
Rope4_Seg09 0.000000 0.000000 0.000000 0.000000 0.000000 0.000000 10.000000 
L_rear_hand01 0.000000 0.000000 0.000000 0.000000 0.000000 0.000000 10.000000 
L_rear_hand02 0.000000 0.000000 0.000000 0.000000 0.000000 0.000000 10.000000 
L_rear_hand03 0.000000 0.000000 0.000000 0.000000 0.000000 0.000000 10.000000 
#Beginning of Data. Separated by tabs
#Fr	Tx	Ty	Tz	Rx	Ry	Rz	SF
[MASTER]
88 0.000000 0.000000 0.000000 0.000000 -0.002347 -90.000000 0.000000
89 0.000000 0.000000 0.000000 0.000000 -0.002347 -90.000000 0.000000
[root]
88 -14.348907 0.214655 472.594574 -88.582237 -10.448839 179.361130 472.812408
89 -14.348907 -1.480132 472.594513 -88.582237 -10.448837 179.361130 472.814606
[chest]
88 -84.512650 -34.090519 0.000000 8.857899 1.194543 -177.443405 91.129311
89 -84.512650 -34.090519 0.000000 9.270183 0.418674 -176.061874 91.129311
[L_mid_tent01]
88 27.299511 22.177458 -249.918259 -63.657536 18.686338 33.262241 252.381134
89 27.299511 22.177458 -249.918259 -63.657536 18.686338 33.262241 252.381134
[R_mid_tent01]
88 23.228794 24.509907 226.238495 -131.259216 -15.836094 39.582561 228.744751
89 23.228794 24.509907 226.238495 -131.259216 -15.836094 39.582561 228.744751
[spine01]
88 -0.361383 -0.195265 0.000000 0.001845 0.001451 13.654368 0.410763
89 -0.361383 -0.195265 0.000000 0.001845 0.001451 13.654368 0.410763
[Bip01_Neck]
88 165.484543 71.581718 0.000119 176.643677 -1.657967 43.431911 180.302734
89 165.484543 71.581718 0.000119 176.643677 -1.657967 43.431911 180.302734
[L_humerus]
88 -13.983130 -135.272980 -120.471481 150.910629 24.414768 -127.157753 181.680161
89 -13.983130 -135.272980 -120.471481 149.961075 25.472197 -127.776054 181.680161
[R_humerus]
88 -13.983309 -135.273102 125.287651 -153.667877 -19.053041 -130.896225 184.909012
89 -13.983309 -135.273102 125.287651 -152.583679 -19.884884 -131.558655 184.909012
[weapon_bone]
88 235.964890 -300.705902 0.000000 0.000000 -89.951546 -128.212341 382.234833
89 235.964890 -300.705902 0.000000 0.000000 -89.951546 -128.212341 382.234833
[Bip01_Head]
88 128.171936 128.412277 8.333419 1.938589 3.724703 -19.795942 181.623810
89 128.171936 128.412277 8.333419 1.938589 3.724702 -19.795938 181.623810
[eye_left_bone]
88 -24.626970 125.451866 -64.772606 0.000000 -90.000000 -99.840431 143.318359
89 -24.626970 125.451866 -64.772606 0.000000 -90.000000 -99.840431 143.318359
[eye_right_bone]
88 -24.626970 125.451866 64.327362 0.000000 -89.965736 80.156380 143.117676
89 -24.626970 125.451866 64.327362 0.000000 -89.965736 80.156380 143.117676
[L_forearm]
88 322.776093 0.000000 -0.000119 0.000520 -0.002289 -115.612129 322.776093
89 322.776093 0.000000 -0.000119 0.000508 -0.002292 -114.999336 322.776093
[L_front_hand]
88 241.149185 -0.042021 -3.300071 138.003448 -1.837545 -27.421076 241.171753
89 241.149185 -0.042021 -3.300071 139.806030 -1.838152 -27.420851 241.171753
[L_weapon_bone]
88 156.183838 0.000000 0.000000 0.000014 0.000007 0.000001 156.183838
89 156.183838 0.000000 0.000000 0.000014 0.000007 0.000001 156.183838
[L_front_hand01_01]
88 86.095154 20.947098 -0.655860 -0.366594 -0.477154 75.385574 88.609184
89 86.095154 20.947098 -0.655860 -0.366594 -0.477154 75.385574 88.609184
[L_front_hand02_01]
88 86.935165 -11.437475 24.513514 154.399796 -59.883835 -61.369587 91.046425
89 86.935165 -11.437475 24.513514 154.399796 -59.883835 -61.369587 91.046425
[L_front_hand03_01]
88 86.637497 -14.123976 -20.424902 -153.913849 58.118122 -62.702866 90.126129
89 86.637497 -14.123976 -20.424902 -153.913849 58.118122 -62.702866 90.126129
[L_front_hand01_02]
88 71.020905 -0.000179 0.000030 0.000334 -0.002323 -106.379684 71.020905
89 71.020905 -0.000179 0.000030 0.000334 -0.002323 -106.379684 71.020905
[L_front_hand02_02]
88 71.020927 -0.000119 0.000060 0.000334 -0.002323 -106.379684 71.020927
89 71.020927 -0.000119 0.000060 0.000334 -0.002323 -106.379684 71.020927
[L_front_hand03_02]
88 71.020905 -0.000060 0.000060 0.000334 -0.002323 -106.379684 71.020905
89 71.020905 -0.000060 0.000060 0.000334 -0.002323 -106.379684 71.020905
[R_forearm]
88 322.776428 -0.000060 0.000030 0.162383 0.135729 -130.525208 322.776428
89 322.776428 -0.000060 0.000030 0.162821 0.135204 -130.154633 322.776428
[R_front_hand]
88 238.847015 -0.006795 2.210259 -172.635620 -10.642722 -26.312246 238.857239
89 238.847015 -0.006795 2.210259 -174.436020 -10.645274 -26.315107 238.857239
[R_weapon_bone]
88 155.664093 0.002503 -0.000030 0.003487 0.001180 -90.988930 155.664078
89 155.664093 0.002503 -0.000030 0.003487 0.001180 -90.988930 155.664078
[R_front_hand01_01]
88 87.624611 14.231146 22.918642 -154.633499 -59.950619 61.746044 91.683487
89 87.624611 14.231146 22.918642 -154.633499 -59.950619 61.746044 91.683487
[R_front_hand02_01]
88 89.356956 14.367283 -19.491137 154.602661 58.302849 63.744389 92.579636
89 89.356956 14.367283 -19.491137 154.602661 58.302849 63.744389 92.579636
[R_front_hand03_01]
88 87.286232 -22.307278 -0.143439 0.162155 -0.423168 -75.767921 90.091743
89 87.286232 -22.307278 -0.143439 0.162155 -0.423168 -75.767921 90.091743
[R_front_hand01_02]
88 71.020905 0.000060 0.000119 0.002323 -0.000334 106.381714 71.020905
89 71.020905 0.000060 0.000119 0.002323 -0.000334 106.381714 71.020905
[R_front_hand02_02]
88 71.020844 -0.000030 -0.000119 0.002323 -0.000334 106.381714 71.020836
89 71.020844 -0.000030 -0.000119 0.002323 -0.000334 106.381714 71.020836
[R_front_hand03_02]
88 71.020905 0.000000 0.000030 0.002323 -0.000334 106.381714 71.020905
89 71.020905 0.000000 0.000030 0.002323 -0.000334 106.381714 71.020905
[null_rope01_connect]
88 328.732483 0.000000 -0.000238 -166.231216 26.298849 69.278122 328.732483
89 328.732483 0.000000 -0.000238 -166.231216 26.298849 69.278122 328.732483
[Rope1_Seg01]
88 0.000000 0.000000 0.000000 130.935120 -33.909164 -58.367599 0.000000
89 0.000000 0.000000 0.000000 131.620499 -34.567181 -58.780186 0.000000
[Rope1_Seg02]
88 139.999863 -0.000179 0.000000 -4.595393 -4.707755 -4.739933 139.999863
89 139.999863 -0.000179 0.000000 -4.732942 -4.753198 -4.851719 139.999863
[Rope1_Seg03]
88 139.999924 0.000060 -0.000060 -6.762987 -6.963030 -8.340500 139.999924
89 139.999924 0.000060 -0.000060 -6.949607 -7.022507 -8.575562 139.999924
[Rope1_Seg04]
88 139.999924 -0.000060 -0.000119 -9.096683 -10.598228 -16.871250 139.999924
89 139.999924 -0.000060 -0.000119 -9.225176 -10.641891 -17.387659 139.999924
[Rope1_Seg05]
88 139.999832 0.000119 -0.000060 -5.997115 -9.254101 -23.628920 139.999832
89 139.999832 0.000119 -0.000060 -5.854435 -9.073242 -24.102518 139.999832
[Rope1_Seg06]
88 139.999954 0.000119 -0.000060 -1.316308 -4.900030 -19.607824 139.999954
89 139.999954 0.000119 -0.000060 -1.167140 -4.226768 -18.722654 139.999954
[Rope1_Seg07]
88 139.999985 0.000060 0.000000 4.677154 -6.057339 -29.197762 139.999985
89 139.999985 0.000060 0.000000 4.182655 -4.975453 -27.627354 139.999985
[Rope1_Seg09]
88 121.602913 0.000119 -0.000089 -89.793175 -1.359789 0.847147 121.602913
89 121.602913 0.000119 -0.000089 -89.793175 -1.359789 0.847147 121.602913
[L_mid_hand01]
88 103.859421 1.038730 8.195221 109.056198 -40.604698 -13.201401 104.187431
89 103.859421 1.038730 8.195221 109.056198 -40.604698 -13.201401 104.187431
[L_mid_hand02]
88 105.572853 -4.139662 -10.864139 -146.713593 31.476528 -37.902313 106.211075
89 105.572853 -4.139662 -10.864139 -146.713593 31.476528 -37.902313 106.211075
[L_mid_hand03]
88 104.641464 17.579376 -3.913581 -14.267233 12.322316 43.898396 106.179977
89 104.641464 17.579376 -3.913581 -14.267233 12.322316 43.898396 106.179977
[null_rope02_connect]
88 328.732849 0.000179 -0.000119 -164.342651 -37.938046 110.680092 328.732849
89 328.732849 0.000179 -0.000119 -164.342651 -37.938038 110.680077 328.732849
[Rope2_Seg01]
88 -0.000038 -0.000114 0.000106 -73.706787 -44.897797 -101.778313 0.000161
89 -0.000038 -0.000114 0.000106 -73.090767 -45.013210 -102.676483 0.000161
[Rope2_Seg02]
88 139.999741 -0.000060 -0.000119 5.720016 4.332095 6.953990 139.999756
89 139.999741 -0.000060 -0.000119 5.557248 4.222207 6.934332 139.999756
[Rope2_Seg03]
88 140.000107 0.000030 0.000000 10.276696 9.666135 12.841991 140.000107
89 140.000107 0.000030 0.000000 10.084608 9.423323 12.867737 140.000107
[Rope2_Seg04]
88 139.999802 0.000000 -0.000060 16.794807 24.794090 24.938250 139.999802
89 139.999802 0.000000 -0.000060 16.915012 24.398403 25.385149 139.999802
[Rope2_Seg05]
88 139.999985 -0.000060 0.000119 4.882112 26.421349 17.104214 139.999985
89 139.999985 -0.000060 0.000119 5.216987 26.558289 17.822893 139.999985
[Rope2_Seg06]
88 139.999893 -0.000030 -0.000119 -1.378535 9.881597 7.677788 139.999893
89 139.999893 -0.000030 -0.000119 -1.307489 9.712106 7.650003 139.999893
[Rope2_Seg07]
88 139.999893 0.000060 -0.000060 -2.747775 8.352430 11.103928 139.999893
89 139.999893 0.000060 -0.000060 -2.565367 7.933549 10.854271 139.999893
[Rope2_Seg09]
88 121.338966 0.000089 -0.000060 33.793236 -1.359788 -0.847141 121.338966
89 121.338966 0.000089 -0.000060 33.793236 -1.359788 -0.847141 121.338966
[R_mid_hand01]
88 104.680779 11.144459 -10.335981 -37.204079 31.906813 37.576260 105.778534
89 104.680779 11.144459 -10.335981 -37.204079 31.906813 37.576260 105.778534
[R_mid_hand02]
88 104.070427 2.443552 8.231699 70.367462 -42.427391 14.067809 104.424065
89 104.070427 2.443552 8.231699 70.367462 -42.427391 14.067809 104.424065
[R_mid_hand03]
88 106.028137 -11.221827 -5.996406 -169.893616 12.226661 -47.211029 106.788818
89 106.028137 -11.221827 -5.996406 -169.893616 12.226661 -47.211018 106.788818
[spine02]
88 129.756927 0.001550 0.000119 -1.023899 -3.926965 6.770993 129.756927
89 129.756927 0.001550 0.000119 -1.023899 -3.926965 6.770993 129.756927
[spine03]
88 78.613846 0.087372 -4.898873 1.040681 4.146420 4.212376 78.766380
89 78.613846 0.087372 -4.898873 1.040681 4.146420 4.212376 78.766380
[pelvis]
88 169.435242 0.051022 0.000000 0.019518 -0.190233 -10.721436 169.435257
89 169.435242 0.051022 0.000000 0.019518 -0.190233 -10.721436 169.435257
[null_rope03_connect]
88 -1.257226 -2.466202 137.391083 21.146048 88.832993 -72.229080 137.418976
89 -1.257226 -2.466202 137.391083 21.146282 88.832657 -72.228729 137.418976
[null_rope04_connect]
88 -1.259640 -2.480268 -137.844437 21.146048 88.832993 -72.229080 137.872513
89 -1.259640 -2.480268 -137.844437 21.146282 88.832657 -72.228729 137.872513
[Rope3_Seg01]
88 0.000000 0.000000 0.000000 -138.120743 -44.487984 106.756142 0.000000
89 0.000000 0.000000 0.000000 -138.120758 -44.487999 106.756180 0.000000
[Rope3_Seg02]
88 139.999924 -0.000119 0.000060 3.745520 -14.663014 5.634119 139.999924
89 139.999924 -0.000119 0.000060 3.745520 -14.663016 5.634115 139.999924
[Rope3_Seg03]
88 139.999924 -0.000119 0.000119 5.724006 -20.395208 10.171993 139.999924
89 139.999924 -0.000119 0.000119 5.723872 -20.394024 10.173314 139.999924
[Rope3_Seg04]
88 139.999924 0.000119 0.000000 4.777127 -15.623561 11.030794 139.999924
89 139.999924 0.000119 0.000000 4.775355 -15.621814 11.032741 139.999924
[Rope3_Seg05]
88 139.999924 -0.000238 0.000060 4.226437 -15.047371 11.444641 139.999924
89 139.999924 -0.000238 0.000060 4.227514 -15.054797 11.440564 139.999924
[Rope3_Seg06]
88 139.999893 -0.000119 -0.000060 3.022541 -23.676828 21.586559 139.999893
89 139.999893 -0.000119 -0.000060 3.029012 -23.682465 21.575029 139.999893
[Rope3_Seg07]
88 139.999771 0.000060 -0.000119 1.074846 -13.722291 15.850173 139.999771
89 139.999771 0.000060 -0.000119 1.080458 -13.722925 15.844494 139.999771
[Rope3_Seg08]
88 139.999985 -0.000060 0.000000 0.587308 -5.887202 7.419997 139.999985
89 139.999985 -0.000060 0.000000 0.587304 -5.887200 7.420002 139.999985
[Rope3_Seg09]
88 90.185997 -0.000179 -0.000060 89.793228 -1.359877 -0.847183 90.185997
89 90.185997 -0.000179 -0.000060 89.793228 -1.359877 -0.847183 90.185997
[R_rear_hand01]
88 103.366196 -6.073594 -10.757982 -164.755127 19.627697 -40.352161 104.101845
89 103.366196 -6.073594 -10.757982 -164.755127 19.627697 -40.352161 104.101845
[R_rear_hand02]
88 100.509819 12.039542 -7.992327 -30.792652 24.782448 38.141541 101.543350
89 100.509819 12.039542 -7.992327 -30.792652 24.782448 38.141541 101.543350
[R_rear_hand03]
88 101.539970 5.215704 5.435467 82.448349 -41.048256 8.840378 101.819031
89 101.539970 5.215704 5.435467 82.448349 -41.048256 8.840378 101.819031
[Rope4_Seg01]
88 0.000010 0.000038 -0.000114 63.872383 -52.427528 66.450783 0.000121
89 0.000010 0.000038 -0.000114 61.583527 -53.622383 69.854668 0.000121
[Rope4_Seg02]
88 139.999985 0.000060 0.000119 -4.113181 1.379031 -10.753763 139.999985
89 139.999985 0.000060 0.000119 -3.664142 0.987280 -10.798622 139.999985
[Rope4_Seg03]
88 139.999924 0.000000 -0.000238 -8.573469 3.520725 -17.891897 139.999924
89 139.999924 0.000000 -0.000238 -7.976965 2.763087 -18.066687 139.999924
[Rope4_Seg04]
88 139.999985 0.000000 0.000119 -14.530097 9.038229 -25.004501 139.999985
89 139.999985 0.000000 0.000119 -14.397322 7.862416 -25.589466 139.999985
[Rope4_Seg05]
88 139.999802 -0.000060 -0.000119 -9.083658 10.445243 -16.004438 139.999802
89 139.999802 -0.000060 -0.000119 -9.596897 9.786782 -16.647295 139.999802
[Rope4_Seg06]
88 139.999924 0.000000 0.000060 -4.991198 7.553794 -10.875412 139.999924
89 139.999924 0.000000 0.000060 -5.314694 6.916182 -10.989260 139.999924
[Rope4_Seg07]
88 139.999802 0.000000 0.000000 -8.329669 13.110074 -20.102606 139.999802
89 139.999802 0.000000 0.000000 -8.970127 11.649880 -19.885540 139.999802
[Rope4_Seg08]
88 139.999924 0.000000 0.000119 -7.492718 15.978234 -19.188747 139.999924
89 139.999924 0.000000 0.000119 -8.922479 15.278497 -19.629639 139.999924
[Rope4_Seg09]
88 90.185791 0.000060 0.000060 -135.617828 2.228885 0.850567 90.185791
89 90.185791 0.000060 0.000060 -135.617828 2.228885 0.850567 90.185791
[L_rear_hand01]
88 101.696655 -8.392275 -7.654577 -31.684452 -23.583008 144.025742 102.329041
89 101.696655 -8.392275 -7.654577 -31.684452 -23.583008 144.025742 102.329041
[L_rear_hand02]
88 102.726799 -1.568258 5.773216 82.701553 38.753956 171.553619 102.900848
89 102.726799 -1.568258 5.773216 82.701553 38.753956 171.553619 102.900848
[L_rear_hand03]
88 104.552910 9.721220 -10.420293 -163.975388 -19.004423 -142.009338 105.519653
89 104.552910 9.721220 -10.420293 -163.975388 -19.004416 -142.009338 105.519653
